<?xml version="1.0" encoding="UTF-8" standalone="no"?>
<!-- Created with Inkscape (http://www.inkscape.org/) -->

<svg
   xmlns:dc="http://purl.org/dc/elements/1.1/"
   xmlns:cc="http://creativecommons.org/ns#"
   xmlns:rdf="http://www.w3.org/1999/02/22-rdf-syntax-ns#"
   xmlns:svg="http://www.w3.org/2000/svg"
   xmlns="http://www.w3.org/2000/svg"
   xmlns:sodipodi="http://sodipodi.sourceforge.net/DTD/sodipodi-0.dtd"
   xmlns:inkscape="http://www.inkscape.org/namespaces/inkscape"
   width="256"
   height="256"
   viewBox="0 0 67.733331 67.733331"
   version="1.1"
   id="svg8"
   inkscape:version="0.92.3 (2405546, 2018-03-11)"
   sodipodi:docname="taylor_bust.svg">
  <defs
     id="defs2" />
  <sodipodi:namedview
     id="base"
     pagecolor="#ffffff"
     bordercolor="#666666"
     borderopacity="1.0"
     inkscape:pageopacity="0.0"
     inkscape:pageshadow="2"
     inkscape:zoom="1.8101934"
     inkscape:cx="36.495196"
     inkscape:cy="149.37169"
     inkscape:document-units="px"
     inkscape:current-layer="layer1"
     showgrid="false"
     units="px"
     inkscape:pagecheckerboard="true"
     inkscape:snap-global="false"
     inkscape:window-width="1304"
     inkscape:window-height="745"
     inkscape:window-x="54"
     inkscape:window-y="-8"
     inkscape:window-maximized="1" />
  <metadata
     id="metadata5">
    <rdf:RDF>
      <cc:Work
         rdf:about="">
        <dc:format>image/svg+xml</dc:format>
        <dc:type
           rdf:resource="http://purl.org/dc/dcmitype/StillImage" />
        <dc:title></dc:title>
      </cc:Work>
    </rdf:RDF>
  </metadata>
  <g
     inkscape:label="Layer 1"
     inkscape:groupmode="layer"
     id="layer1"
     transform="translate(0,-229.26667)">
    <g
       id="g5143"
       transform="matrix(1.048362,0,0,1.048362,1.5495574,-12.653274)">
      <path
         sodipodi:nodetypes="csccszcccccccacc"
         inkscape:connector-curvature="0"
         id="path5069"
         d="m 5.5997478,262.66145 c 0,0 0.6416982,-8.13868 0.9098564,-11.46798 1.2963293,-16.09448 13.8472248,-13.64514 22.2323348,-13.85257 13.108279,-0.28111 18.277157,3.19915 18.277157,3.19915 5.56354,1.50619 -4.655076,9.07674 5.404431,15.48066 0,0 3.454865,-7.59026 5.223935,1.19896 1.76907,8.78923 0.275671,13.30702 0.275671,13.30702 0,0 -2.515714,7.0513 -4.408799,3.56787 -1.850813,1.89239 -8.30927,10.8662 -8.30927,10.8662 0,0 -3.995997,2.83044 -5.534627,3.79712 -1.538639,0.96665 -14.351495,6.01603 -14.351495,6.01603 l -6.573779,-0.17015 -3.68116,-8.88776 c 0,0 -2.750336,-3.8549 -3.566103,-6.08963 -1.277291,-3.49904 -5.0231148,-4.55035 -1.9443368,-11.08744 z"
         style="fill:#d38521;fill-opacity:1;stroke:#000000;stroke-width:0.21442612px;stroke-linecap:butt;stroke-linejoin:miter;stroke-opacity:1" />
      <path
         sodipodi:nodetypes="sssssccsccccs"
         inkscape:connector-curvature="0"
         id="path5071"
         d="M 7.447356,255.16201 C 4.2011047,258.34177 6.9688063,273.66703 4.3972518,249.06373 3.4328693,239.83702 18.654916,234.7469 27.727021,232.6025 c 8.100943,-1.91484 19.960592,-1.59608 24.605991,3.9587 3.655676,4.37131 9.503693,10.07051 7.501562,20.3064 -1.14288,5.84296 -1.28919,8.124 -1.28919,8.124 0.01725,-4.54112 -1.446598,-11.02088 -1.978363,-10.83972 -0.531764,0.18118 -0.467373,-1.7141 -3.856035,1.77319 -1.982475,2.04016 -2.457276,8.89061 -2.457276,8.89061 0,0 -0.328296,-14.10006 -3.753291,-15.12661 5.080582,-19.31323 -40.228457,-7.55789 -36.204694,-3.42639 0,0 -1.4148571,-0.3915 -0.6844813,6.77977 z"
         style="fill:#2b1100;stroke:#000000;stroke-width:0.25451028px;stroke-linecap:butt;stroke-linejoin:miter;stroke-opacity:1" />
      <path
         inkscape:connector-curvature="0"
         id="path5073"
         d="m 22.502657,285.21922 6.25013,-0.57902"
         style="fill:none;stroke:#000000;stroke-width:0.25451028px;stroke-linecap:butt;stroke-linejoin:miter;stroke-opacity:1" />
      <path
         inkscape:connector-curvature="0"
         id="path5075"
         d="m 19.890455,282.89936 c 14.352099,-3.41074 9.657336,-1.14771 14.352099,-3.41074 4.694762,-2.26305 2.125357,-3.13369 2.125357,-3.13369"
         style="fill:none;stroke:#000000;stroke-width:0.25451028px;stroke-linecap:butt;stroke-linejoin:miter;stroke-opacity:1"
         sodipodi:nodetypes="ccc" />
      <ellipse
         ry="2.3389659"
         rx="2.1635993"
         cy="260.60498"
         cx="16.683187"
         id="path5100"
         style="opacity:1;vector-effect:none;fill:#2b1100;fill-opacity:1;stroke:#000000;stroke-width:0.25451025px;stroke-linecap:butt;stroke-linejoin:miter;stroke-miterlimit:4;stroke-dasharray:none;stroke-dashoffset:0;stroke-opacity:1" />
      <ellipse
         ry="2.3389659"
         rx="2.1635993"
         cy="258.38791"
         cx="35.24017"
         id="path5100-2"
         style="opacity:1;vector-effect:none;fill:#2b1100;fill-opacity:1;stroke:#000000;stroke-width:0.25451025px;stroke-linecap:butt;stroke-linejoin:miter;stroke-miterlimit:4;stroke-dasharray:none;stroke-dashoffset:0;stroke-opacity:1" />
      <path
         sodipodi:nodetypes="csszsc"
         inkscape:connector-curvature="0"
         id="path5117"
         d="m 26.554609,263.67492 c 0,0 -0.347129,2.63931 -1.825908,4.55251 -1.434998,1.85655 -2.294811,4.7458 -2.054504,5.81272 0.408931,1.81555 3.375634,1.18916 3.136673,0.70831 -0.23896,-0.48084 0.729017,-1.54245 1.367831,-1.46813 1.252601,0.14574 1.352832,1.29382 1.352832,1.29382"
         style="fill:none;stroke:#000000;stroke-width:0.25451028px;stroke-linecap:butt;stroke-linejoin:miter;stroke-opacity:1" />
      <path
         inkscape:connector-curvature="0"
         id="path5121"
         d="m 30.345171,255.0375 8.89252,-2.48085 3.920356,1.13705"
         style="fill:none;stroke:#000000;stroke-width:0.25451028px;stroke-linecap:butt;stroke-linejoin:miter;stroke-opacity:1" />
      <path
         inkscape:connector-curvature="0"
         id="path5123"
         d="m 19.731518,255.63263 -5.354635,-0.51685 -3.346647,1.03369"
         style="fill:none;stroke:#000000;stroke-width:0.25451028px;stroke-linecap:butt;stroke-linejoin:miter;stroke-opacity:1" />
    </g>
  </g>
</svg>
